# xmcd
#
# Track frame offsets: 
#        182
#        13687
#        35320
#        55670
#        78195
#        93247
#        110995
#        124522
#        139340
#        157107
#
# Disc length: 2282 seconds
#
# Revision: 5
# Processed by: cddbd v1.5.2PL0 Copyright (c) Steve Scherf et al.
# Submitted via: ExactAudioCopy v1.0b2
#
DISCID=7c08e80a
DTITLE=Various Artist - Bar Jazz
DYEAR=2003
DGENRE=Jazz
TTITLE0=Eddie"Cleanhead" Vinson and Count Basie and HisOrchestra - Cherry 
TTITLE0=Red
TTITLE1=Lionel Hampton and His All Star Jazz Inner Circle - The Shadow O
TTITLE1=f Your Smile
TTITLE2=Oscar Peterson Trio - On A Clear Day (You can See Forever)
TTITLE3=Clarke Boland Big Band - I'm Glad There Is You
TTITLE4=Louis Armstrong and His All Stars - Blueberry Hill
TTITLE5=Gerry Mulligan and The Concert Jazz Band - Black Night Down
TTITLE6=Judy Garland  - Rock-A-Bye Your Baby (With A Dixie Melodie)
TTITLE7=Count Basie and His Orchestra - April In Paris
TTITLE8=Oscar Peterson Trio - Could Write A Book
TTITLE9=Duke Ellington and His Orchestra - Sophisticated Lady
EXTD=
EXTT0=
EXTT1=
EXTT2=
EXTT3=
EXTT4=
EXTT5=
EXTT6=
EXTT7=
EXTT8=
EXTT9=
PLAYORDER=
